HIERARCHY
ROOT joint_Root
{
	OFFSET 0.0 0.0 0.0
	CHANNELS 6 Xposition Yposition Zposition Zrotation Xrotation Yrotation 
	JOINT Hips
	{
		OFFSET 4.5925 91.4895 -427.239
		CHANNELS 6 Xposition Yposition Zposition Zrotation Xrotation Yrotation 
		JOINT Spine
		{
			OFFSET 15.7357 0.0 0.0
			CHANNELS 6 Xposition Yposition Zposition Zrotation Xrotation Yrotation 
			JOINT Chest
			{
				OFFSET 8.98455 -0.406207 0.0
				CHANNELS 6 Xposition Yposition Zposition Zrotation Xrotation Yrotation 
				JOINT Neck
				{
					OFFSET 16.3773 0.0 0.0
					CHANNELS 6 Xposition Yposition Zposition Zrotation Xrotation Yrotation 
					JOINT Head
					{
						OFFSET 6.45672 0.0 0.0
						CHANNELS 6 Xposition Yposition Zposition Zrotation Xrotation Yrotation 
						End Site
						{
							OFFSET 0.0 0.0 0.0
						}
					}
				}
				JOINT Shoulder_L
				{
					OFFSET 12.9942 -0.242716 4.98039
					CHANNELS 6 Xposition Yposition Zposition Zrotation Xrotation Yrotation 
					JOINT UpperArm_L
					{
						OFFSET 5.34809 0.0 0.0
						CHANNELS 6 Xposition Yposition Zposition Zrotation Xrotation Yrotation 
						JOINT LowerArm_L
						{
							OFFSET 24.3286 1.87007e-05 0.0
							CHANNELS 6 Xposition Yposition Zposition Zrotation Xrotation Yrotation 
							JOINT Hand_L
							{
								OFFSET 22.2916 0.0 0.0
								CHANNELS 6 Xposition Yposition Zposition Zrotation Xrotation Yrotation 
								End Site
								{
									OFFSET 0.0 0.0 0.0
								}
							}
						}
					}
				}
				JOINT Shoulder_R
				{
					OFFSET 12.9945 -0.242716 -4.98039
					CHANNELS 6 Xposition Yposition Zposition Zrotation Xrotation Yrotation 
					JOINT UpperArm_R
					{
						OFFSET -5.34813 0.0 0.0
						CHANNELS 6 Xposition Yposition Zposition Zrotation Xrotation Yrotation 
						JOINT LowerArm_R
						{
							OFFSET -24.3289 0.000322201 0.0
							CHANNELS 6 Xposition Yposition Zposition Zrotation Xrotation Yrotation 
							JOINT Hand_R
							{
								OFFSET -22.2915 -0.000108084 0.0
								CHANNELS 6 Xposition Yposition Zposition Zrotation Xrotation Yrotation 
								End Site
								{
									OFFSET 0.0 0.0 0.0
								}
							}
						}
					}
				}
			}
		}
		JOINT UpperLeg_L
		{
			OFFSET -2.19248 -6.46944 0.0
			CHANNELS 6 Xposition Yposition Zposition Zrotation Xrotation Yrotation 
			JOINT LowerLeg_L
			{
				OFFSET 39.0811 0.0 -1.23785e-05
				CHANNELS 6 Xposition Yposition Zposition Zrotation Xrotation Yrotation 
				JOINT Foot_L
				{
					OFFSET 40.9854 0.0 -1.26872e-05
					CHANNELS 6 Xposition Yposition Zposition Zrotation Xrotation Yrotation 
					JOINT Toes_L
					{
						OFFSET 11.7543 0.0 0.0
						CHANNELS 6 Xposition Yposition Zposition Zrotation Xrotation Yrotation 
						End Site
						{
							OFFSET 0.0 0.0 0.0
						}
					}
				}
			}
		}
		JOINT UpperLeg_R
		{
			OFFSET -2.19251 6.46944 0.0
			CHANNELS 6 Xposition Yposition Zposition Zrotation Xrotation Yrotation 
			JOINT LowerLeg_R
			{
				OFFSET -39.0811 -0.00228153 -0.0401928
				CHANNELS 6 Xposition Yposition Zposition Zrotation Xrotation Yrotation 
				JOINT Foot_R
				{
					OFFSET -40.9854 0.0 0.0
					CHANNELS 6 Xposition Yposition Zposition Zrotation Xrotation Yrotation 
					JOINT Toes_R
					{
						OFFSET -11.7543 0.0 0.0
						CHANNELS 6 Xposition Yposition Zposition Zrotation Xrotation Yrotation 
						End Site
						{
							OFFSET 0.0 0.0 0.0
						}
					}
				}
			}
		}
	}
}
MOTION
Frames:	5
Frame Time:	0.0333333
0.000000 0.000000 0.000000 0.000000 0.000000 -0.000000 3.679040 86.092000 469.486000 -89.502800 3.211970 173.333000 15.735700 0.000005 -0.000001 102.142000 83.048600 -101.434000 8.984550 -0.406207 -0.000000 5.814060 2.904840 1.267310 16.377300 -0.000001 -0.000001 -5.196080 -3.076480 4.640820 6.456720 -0.000001 -0.000000 -12.316100 -3.766890 8.087970 12.994200 -0.242716 4.980390 -89.492800 -1.416350 -70.300700 5.348090 -0.000007 -0.000001 -73.782800 38.912600 16.266000 24.328600 0.000019 0.000005 -1.550810 0.090916 -93.652100 22.291600 -0.000001 0.000005 8.740950 5.360600 -1.754440 12.994500 -0.242716 -4.980390 88.442500 6.911420 -77.267300 -5.348130 -0.000001 -0.000004 -51.995600 31.154400 -36.000500 -24.328900 0.000322 -0.000009 -5.285180 3.742040 -125.196000 -22.291500 -0.000108 -0.000004 25.067100 5.618580 -12.491000 -2.192480 -6.469440 -0.000000 178.185000 -1.948550 -43.352500 39.081100 -0.000007 -0.000012 -0.014586 -0.003221 102.490000 40.985400 -0.000006 -0.000013 5.457280 -2.874930 -55.403500 11.754300 -0.000000 0.000003 -0.009366 -0.098849 -20.603500 -2.192510 6.469440 -0.000001 178.356000 3.814800 171.217000 -39.081100 -0.002282 -0.040193 0.052069 -0.057716 40.209700 -40.985400 0.000008 0.000006 8.284180 4.827830 -84.193200 -11.754300 -0.000006 -0.000006 -0.882403 -1.025910 -21.455800
0.000000 0.000000 0.000000 0.000000 0.000000 -0.000000 2.400140 89.163200 463.704000 -91.495000 4.208810 171.348000 15.735700 0.000005 -0.000001 113.580000 83.644800 -114.104000 8.984550 -0.406207 -0.000000 3.919520 5.094870 -1.222100 16.377300 -0.000001 -0.000001 -5.341490 -2.998490 4.191990 6.456720 -0.000001 -0.000000 -12.458000 -4.943790 7.614720 12.994200 -0.242716 4.980390 -88.750600 -3.263900 -69.043700 5.348090 -0.000007 -0.000001 -71.337000 41.478100 20.149600 24.328600 0.000019 0.000005 3.839720 -0.675793 -99.952700 22.291600 -0.000001 0.000005 2.069750 5.434180 -4.082760 12.994500 -0.242716 -4.980390 89.026100 4.635350 -78.123400 -5.348130 -0.000001 -0.000004 -52.909800 32.877800 -37.516300 -24.328900 0.000322 -0.000009 -8.649170 6.328680 -125.931000 -22.291500 -0.000108 -0.000004 24.899900 5.628370 -13.213600 -2.192480 -6.469440 -0.000000 176.019000 -1.689230 -44.750900 39.081100 -0.000007 -0.000012 0.043960 -0.000456 89.393700 40.985400 -0.000006 -0.000013 5.749280 -6.108790 -58.544200 11.754300 -0.000000 0.000003 -0.008202 -0.089683 -20.229000 -2.192510 6.469440 -0.000001 174.394000 7.249860 175.064000 -39.081100 -0.002282 -0.040193 0.036942 -0.052258 32.774800 -40.985400 0.000008 0.000006 8.938270 9.953410 -71.792800 -11.754300 -0.000006 -0.000006 -0.060322 -0.332820 -30.318900
0.000000 0.000000 0.000000 0.000000 0.000000 -0.000000 1.371810 92.035200 457.999000 -91.688500 4.879700 169.881000 15.735700 0.000005 -0.000001 122.217000 83.824300 -123.396000 8.984550 -0.406207 -0.000000 2.769680 6.630310 -2.517390 16.377300 -0.000001 -0.000001 -5.908480 -3.032380 3.497810 6.456720 -0.000001 -0.000000 -13.135700 -5.426060 6.254890 12.994200 -0.242716 4.980390 -88.093200 -4.776860 -68.210300 5.348090 -0.000007 -0.000001 -69.462800 42.772300 23.020300 24.328600 0.000019 0.000005 1.825850 -0.482780 -104.855000 22.291600 -0.000001 0.000005 2.053350 5.435680 -4.135490 12.994500 -0.242716 -4.980390 89.366300 3.261770 -79.000600 -5.348130 -0.000001 -0.000004 -53.421000 34.501400 -36.907000 -24.328900 0.000322 -0.000009 -8.338400 5.578370 -123.553000 -22.291500 -0.000108 -0.000004 23.124500 5.626430 -13.072300 -2.192480 -6.469440 -0.000000 176.306000 -1.840010 -43.072600 39.081100 -0.000007 -0.000012 0.075812 -0.023808 72.561400 40.985400 -0.000006 -0.000013 7.248840 -6.736500 -61.929000 11.754300 -0.000000 0.000003 -0.008311 -0.090565 -20.265000 -2.192510 6.469440 -0.000001 171.890000 13.697200 177.584000 -39.081100 -0.002282 -0.040193 0.054253 -0.096914 27.730400 -40.985400 0.000008 0.000006 9.053240 17.950400 -57.733400 -11.754300 -0.000006 -0.000006 -0.140139 -0.534884 -39.135400
0.000000 0.000000 0.000000 0.000000 0.000000 -0.000000 0.706493 93.764600 451.986000 -90.932100 4.829930 169.985000 15.735700 0.000005 -0.000001 123.769000 83.686200 -125.169000 8.984550 -0.406207 -0.000000 2.838510 7.072640 -2.976100 16.377300 -0.000001 -0.000001 -6.510330 -3.078650 2.925880 6.456720 -0.000001 -0.000000 -13.851000 -5.630030 4.682310 12.994200 -0.242716 4.980390 -87.549700 -6.072650 -67.976300 5.348090 -0.000007 -0.000001 -68.870900 41.367700 25.604500 24.328600 0.000019 0.000005 -1.374830 0.456284 -108.310000 22.291600 -0.000001 0.000005 3.715770 5.429200 -3.910970 12.994500 -0.242716 -4.980390 89.519700 2.750890 -80.094000 -5.348130 -0.000001 -0.000004 -53.211600 36.494200 -34.962600 -24.328900 0.000322 -0.000009 -7.297120 3.946520 -118.261000 -22.291500 -0.000108 -0.000004 23.760300 5.612810 -12.139900 -2.192480 -6.469440 -0.000000 178.394000 -1.737470 -37.805700 39.081100 -0.000007 -0.000012 0.071120 -0.051738 53.963000 40.985400 -0.000006 -0.000013 6.162720 -3.326560 -65.794900 11.754300 -0.000000 0.000003 -0.007586 -0.084629 -20.022600 -2.192510 6.469440 -0.000001 170.902000 15.489400 179.952000 -39.081100 -0.002282 -0.040193 0.076631 -0.144448 26.912700 -40.985400 0.000008 0.000006 4.665530 19.510700 -47.607500 -11.754300 -0.000006 -0.000006 -0.056334 -0.319666 -29.761600
0.000000 0.000000 0.000000 0.000000 0.000000 -0.000000 0.341917 94.012600 445.724000 -90.142900 4.758230 170.694000 15.735700 0.000005 -0.000001 123.975000 83.476100 -125.514000 8.984550 -0.406207 -0.000000 3.177770 7.345420 -3.283260 16.377300 -0.000001 -0.000001 -6.856040 -3.263490 2.070730 6.456720 -0.000001 -0.000000 -13.416500 -6.116620 3.518680 12.994200 -0.242716 4.980390 -87.039400 -7.662040 -68.798000 5.348090 -0.000007 -0.000001 -69.023800 37.963000 26.873700 24.328600 0.000019 0.000005 -3.519030 1.312860 -110.430000 22.291600 -0.000001 0.000005 4.443020 5.426220 -3.809900 12.994500 -0.242716 -4.980390 89.592700 2.523590 -80.829700 -5.348130 -0.000001 -0.000004 -54.246400 38.197000 -31.111900 -24.328900 0.000322 -0.000009 -8.970330 3.426450 -110.738000 -22.291500 -0.000108 -0.000004 23.241800 5.605450 -11.673800 -2.192480 -6.469440 -0.000000 -179.503000 -2.087610 -31.787300 39.081100 -0.000007 -0.000012 0.034590 -0.045060 37.510600 40.985400 -0.000006 -0.000013 3.663350 0.185530 -67.532800 11.754300 -0.000000 0.000003 -0.006994 -0.079623 -19.818200 -2.192510 6.469440 -0.000001 172.181000 10.434000 -179.061000 -39.081100 -0.002282 -0.040193 0.102454 -0.157374 32.214000 -40.985400 0.000008 0.000006 4.619980 10.578300 -44.985700 -11.754300 -0.000006 -0.000006 -0.023885 -0.187928 -24.259300
